<mxfile host="app.diagrams.net" modified="2024-01-15T07:27:00.000Z" agent="Mozilla/5.0 (Windows NT 10.0; Win64; x64) AppleWebKit/537.36 (KHTML, like Gecko) Chrome/120.0.0.0 Safari/537.36" etag="zv0rB9NIsTFhBr4iDZJ9" version="22.1.18" type="device">
  <diagram id="6a731a19-8d31-9384-78a2-239565b7b9f0" name="Page-1">
    <mxGraphModel dx="2200" dy="238" grid="1" gridSize="10" guides="1" tooltips="1" connect="1" arrows="1" fold="1" page="1" pageScale="1" pageWidth="1169" pageHeight="827" background="none" math="0" shadow="0">
      <root>
        <mxCell id="0" />
        <mxCell id="1" parent="0" />
        <mxCell id="56" value="Project&#xa;" style="strokeColor=#BAC8D3;fillColor=#23445D;fontSize=24;strokeWidth=2;fontFamily=Helvetica;html=1;fontColor=#FFFFFF;fontStyle=0;spacingBottom=8;spacingRight=0;spacingLeft=83;" parent="1" vertex="1">
          <mxGeometry x="154" y="850.5" width="2030" height="80" as="geometry" />
        </mxCell>
        <mxCell id="57" value="Art and XMAL" style="strokeColor=#BAC8D3;fillColor=#23445D;fontSize=24;strokeWidth=2;horizontal=0;fontFamily=Helvetica;html=1;fontColor=#FFFFFF;fontStyle=0" parent="1" vertex="1">
          <mxGeometry x="154" y="930.5" width="50" height="300" as="geometry" />
        </mxCell>
        <mxCell id="58" value="Map Grid" style="strokeColor=#BAC8D3;fillColor=#5d7f99;fontSize=19;strokeWidth=2;horizontal=0;fontFamily=Helvetica;html=1;labelBackgroundColor=none;fontColor=#FFFFFF;" parent="1" vertex="1">
          <mxGeometry x="204" y="930.5" width="40" height="100" as="geometry" />
        </mxCell>
        <mxCell id="59" value="v 1.0" style="strokeColor=#BAC8D3;fillColor=#5d7f99;fontSize=19;strokeWidth=2;fontFamily=Helvetica;html=1;labelBackgroundColor=none;fontColor=#FFFFFF;" parent="1" vertex="1">
          <mxGeometry x="154" y="850.5" width="90" height="80" as="geometry" />
        </mxCell>
        <mxCell id="60" value="Player zone" style="strokeColor=#BAC8D3;fillColor=#5d7f99;fontSize=19;strokeWidth=2;horizontal=0;fontFamily=Helvetica;html=1;labelBackgroundColor=none;fontColor=#FFFFFF;" parent="1" vertex="1">
          <mxGeometry x="204" y="1030.5" width="40" height="100" as="geometry" />
        </mxCell>
        <mxCell id="61" value="Info zone" style="strokeColor=#BAC8D3;fillColor=#5d7f99;fontSize=19;strokeWidth=2;horizontal=0;fontFamily=Helvetica;html=1;labelBackgroundColor=none;fontColor=#FFFFFF;" parent="1" vertex="1">
          <mxGeometry x="204" y="1130.5" width="40" height="100" as="geometry" />
        </mxCell>
        <mxCell id="62" value="Gameplay" style="strokeColor=#BAC8D3;fillColor=#5d7f99;fontSize=19;strokeWidth=2;horizontal=0;fontFamily=Helvetica;html=1;labelBackgroundColor=none;fontColor=#FFFFFF;" parent="1" vertex="1">
          <mxGeometry x="204" y="1330.5" width="40" height="100" as="geometry" />
        </mxCell>
        <mxCell id="63" value="Quests" style="strokeColor=#BAC8D3;fillColor=#5d7f99;fontSize=19;strokeWidth=2;horizontal=0;fontFamily=Helvetica;html=1;labelBackgroundColor=none;fontColor=#FFFFFF;" parent="1" vertex="1">
          <mxGeometry x="204" y="1230.5" width="40" height="100" as="geometry" />
        </mxCell>
        <mxCell id="64" value="Quest and Game" style="strokeColor=#BAC8D3;fillColor=#23445D;fontSize=24;strokeWidth=2;horizontal=0;fontFamily=Helvetica;html=1;fontColor=#FFFFFF;fontStyle=0" parent="1" vertex="1">
          <mxGeometry x="154" y="1230.5" width="50" height="200" as="geometry" />
        </mxCell>
        <mxCell id="65" value="Gameplay" style="strokeColor=#BAC8D3;fillColor=#5d7f99;fontSize=19;strokeWidth=2;horizontal=0;fontFamily=Helvetica;html=1;labelBackgroundColor=none;fontColor=#FFFFFF;" parent="1" vertex="1">
          <mxGeometry x="204" y="1530.5" width="40" height="100" as="geometry" />
        </mxCell>
        <mxCell id="66" value="Squares" style="strokeColor=#BAC8D3;fillColor=#5d7f99;fontSize=19;strokeWidth=2;horizontal=0;fontFamily=Helvetica;html=1;labelBackgroundColor=none;fontColor=#FFFFFF;" parent="1" vertex="1">
          <mxGeometry x="204" y="1430.5" width="40" height="100" as="geometry" />
        </mxCell>
        <mxCell id="67" value="Square logic" style="strokeColor=#BAC8D3;fillColor=#23445D;fontSize=24;strokeWidth=2;horizontal=0;fontFamily=Helvetica;html=1;fontColor=#FFFFFF;fontStyle=0" parent="1" vertex="1">
          <mxGeometry x="154" y="1430.5" width="50" height="200" as="geometry" />
        </mxCell>
        <mxCell id="68" value="" style="strokeColor=#FFFFFF;fillColor=#BAC8D3;fontSize=18;strokeWidth=2;fontFamily=Helvetica;html=1;opacity=60;" parent="1" vertex="1">
          <mxGeometry x="244" y="930.5" width="1296" height="100" as="geometry" />
        </mxCell>
        <mxCell id="69" value="" style="strokeColor=#FFFFFF;fillColor=#BAC8D3;fontSize=18;strokeWidth=2;fontFamily=Helvetica;html=1;opacity=90;" parent="1" vertex="1">
          <mxGeometry x="244" y="1030.5" width="1296" height="100" as="geometry" />
        </mxCell>
        <mxCell id="70" value="" style="strokeColor=#FFFFFF;fillColor=#BAC8D3;fontSize=18;strokeWidth=2;fontFamily=Helvetica;html=1;opacity=60;" parent="1" vertex="1">
          <mxGeometry x="244" y="1130.5" width="1296" height="100" as="geometry" />
        </mxCell>
        <mxCell id="71" value="" style="strokeColor=#FFFFFF;fillColor=#BAC8D3;fontSize=18;strokeWidth=2;fontFamily=Helvetica;html=1;opacity=90;" parent="1" vertex="1">
          <mxGeometry x="244" y="1230.5" width="1296" height="100" as="geometry" />
        </mxCell>
        <mxCell id="72" value="" style="strokeColor=#FFFFFF;fillColor=#BAC8D3;fontSize=18;strokeWidth=2;fontFamily=Helvetica;html=1;opacity=60;" parent="1" vertex="1">
          <mxGeometry x="244" y="1330.5" width="1296" height="100" as="geometry" />
        </mxCell>
        <mxCell id="73" value="" style="strokeColor=#FFFFFF;fillColor=#BAC8D3;fontSize=18;strokeWidth=2;fontFamily=Helvetica;html=1;opacity=90;" parent="1" vertex="1">
          <mxGeometry x="244" y="1430.5" width="1296" height="100" as="geometry" />
        </mxCell>
        <mxCell id="74" value="" style="strokeColor=#FFFFFF;fillColor=#BAC8D3;fontSize=18;strokeWidth=2;fontFamily=Helvetica;html=1;opacity=60;" parent="1" vertex="1">
          <mxGeometry x="244" y="1530.5" width="1296" height="100" as="geometry" />
        </mxCell>
        <mxCell id="82" value="" style="strokeColor=#FFFFFF;fillColor=#BAC8D3;fontSize=18;strokeWidth=2;fontFamily=Helvetica;html=1;opacity=60;" parent="1" vertex="1">
          <mxGeometry x="1537.3333333333333" y="930.5" width="647" height="100" as="geometry" />
        </mxCell>
        <mxCell id="83" value="" style="strokeColor=#FFFFFF;fillColor=#BAC8D3;fontSize=18;strokeWidth=2;fontFamily=Helvetica;html=1;opacity=90;" parent="1" vertex="1">
          <mxGeometry x="1537.3333333333333" y="1030.5" width="646.6666666666666" height="100" as="geometry" />
        </mxCell>
        <mxCell id="84" value="" style="strokeColor=#FFFFFF;fillColor=#BAC8D3;fontSize=18;strokeWidth=2;fontFamily=Helvetica;html=1;opacity=60;" parent="1" vertex="1">
          <mxGeometry x="1537.3333333333333" y="1130.5" width="646.6666666666666" height="100" as="geometry" />
        </mxCell>
        <mxCell id="85" value="" style="strokeColor=#FFFFFF;fillColor=#BAC8D3;fontSize=18;strokeWidth=2;fontFamily=Helvetica;html=1;opacity=90;" parent="1" vertex="1">
          <mxGeometry x="1537.3333333333333" y="1230.5" width="646.6666666666666" height="100" as="geometry" />
        </mxCell>
        <mxCell id="86" value="" style="strokeColor=#FFFFFF;fillColor=#BAC8D3;fontSize=18;strokeWidth=2;fontFamily=Helvetica;html=1;opacity=60;" parent="1" vertex="1">
          <mxGeometry x="1537.3333333333333" y="1330.5" width="646.6666666666666" height="100" as="geometry" />
        </mxCell>
        <mxCell id="87" value="" style="strokeColor=#FFFFFF;fillColor=#BAC8D3;fontSize=18;strokeWidth=2;fontFamily=Helvetica;html=1;opacity=90;" parent="1" vertex="1">
          <mxGeometry x="1537.3333333333333" y="1430.5" width="646.6666666666666" height="100" as="geometry" />
        </mxCell>
        <mxCell id="88" value="" style="strokeColor=#FFFFFF;fillColor=#BAC8D3;fontSize=18;strokeWidth=2;fontFamily=Helvetica;html=1;opacity=60;fontStyle=4" parent="1" vertex="1">
          <mxGeometry x="1537.3333333333333" y="1530.5" width="646.6666666666666" height="100" as="geometry" />
        </mxCell>
        <mxCell id="KreT_QJVxRflNTfqCWUp-144" value="" style="edgeStyle=orthogonalEdgeStyle;rounded=0;orthogonalLoop=1;jettySize=auto;html=1;strokeWidth=3;" edge="1" parent="1" source="90" target="KreT_QJVxRflNTfqCWUp-143">
          <mxGeometry relative="1" as="geometry" />
        </mxCell>
        <mxCell id="KreT_QJVxRflNTfqCWUp-169" value="" style="edgeStyle=elbowEdgeStyle;rounded=1;orthogonalLoop=1;jettySize=auto;html=1;strokeWidth=3;curved=0;" edge="1" parent="1" source="90" target="KreT_QJVxRflNTfqCWUp-167">
          <mxGeometry relative="1" as="geometry" />
        </mxCell>
        <mxCell id="90" value="Select Field image" style="rounded=1;fillColor=#23445D;strokeColor=none;strokeWidth=2;fontFamily=Helvetica;html=1;gradientColor=none;fontColor=#FFFFFF;" parent="1" vertex="1">
          <mxGeometry x="270.3945578231293" y="955.5" width="127" height="50" as="geometry" />
        </mxCell>
        <mxCell id="KreT_QJVxRflNTfqCWUp-160" value="" style="edgeStyle=orthogonalEdgeStyle;rounded=0;orthogonalLoop=1;jettySize=auto;html=1;" edge="1" parent="1" source="91" target="KreT_QJVxRflNTfqCWUp-157">
          <mxGeometry relative="1" as="geometry" />
        </mxCell>
        <mxCell id="91" value="Create deck and quest&lt;br&gt;selection" style="rounded=1;fillColor=#23445D;strokeColor=none;strokeWidth=2;fontFamily=Helvetica;html=1;gradientColor=none;fontColor=#FFFFFF;" parent="1" vertex="1">
          <mxGeometry x="700.004761904762" y="1050" width="127" height="50" as="geometry" />
        </mxCell>
        <mxCell id="92" value="&lt;font color=&quot;#ffffff&quot;&gt;Create ID selection&lt;/font&gt;" style="rounded=1;fillColor=#23445D;strokeColor=none;strokeWidth=2;fontFamily=Helvetica;html=1;gradientColor=none;" parent="1" vertex="1">
          <mxGeometry x="477.39374149659864" y="1155.5" width="127" height="50" as="geometry" />
        </mxCell>
        <mxCell id="KreT_QJVxRflNTfqCWUp-172" value="" style="edgeStyle=elbowEdgeStyle;rounded=1;orthogonalLoop=1;jettySize=auto;html=1;curved=0;strokeWidth=3;" edge="1" parent="1" source="93" target="KreT_QJVxRflNTfqCWUp-170">
          <mxGeometry relative="1" as="geometry" />
        </mxCell>
        <mxCell id="93" value="Formalise Quest&lt;br&gt;card IDs" style="rounded=1;fillColor=#23445D;strokeColor=none;strokeWidth=2;fontFamily=Helvetica;html=1;gradientColor=none;fontColor=#FFFFFF;" parent="1" vertex="1">
          <mxGeometry x="700.004761904762" y="1255.5" width="127" height="50" as="geometry" />
        </mxCell>
        <mxCell id="98" value="&lt;font color=&quot;#ffffff&quot;&gt;Realtime movement&lt;/font&gt;" style="rounded=1;fillColor=#23445D;strokeColor=none;strokeWidth=2;fontFamily=Helvetica;html=1;gradientColor=none;" parent="1" vertex="1">
          <mxGeometry x="1130.0014285714285" y="1050" width="127" height="50" as="geometry" />
        </mxCell>
        <mxCell id="KreT_QJVxRflNTfqCWUp-195" value="" style="edgeStyle=orthogonalEdgeStyle;rounded=1;orthogonalLoop=1;jettySize=auto;html=1;entryX=0;entryY=0.5;entryDx=0;entryDy=0;curved=0;strokeWidth=3;" edge="1" parent="1" source="101" target="111">
          <mxGeometry relative="1" as="geometry" />
        </mxCell>
        <mxCell id="101" value="Formalise square&lt;br&gt;calling workflow" style="rounded=1;fillColor=#23445D;strokeColor=none;strokeWidth=2;fontFamily=Helvetica;html=1;gradientColor=none;fontColor=#FFFFFF;" parent="1" vertex="1">
          <mxGeometry x="940.2549659863945" y="1550" width="127" height="50" as="geometry" />
        </mxCell>
        <mxCell id="102" value="&lt;font color=&quot;#ffffff&quot;&gt;Formalise square&lt;br&gt;card IDs&lt;br&gt;&lt;/font&gt;" style="rounded=1;fillColor=#23445D;strokeColor=none;strokeWidth=2;fontFamily=Helvetica;html=1;gradientColor=none;" parent="1" vertex="1">
          <mxGeometry x="700.0085034013605" y="1455.5" width="127" height="50" as="geometry" />
        </mxCell>
        <mxCell id="KreT_QJVxRflNTfqCWUp-180" value="" style="edgeStyle=orthogonalEdgeStyle;rounded=0;orthogonalLoop=1;jettySize=auto;html=1;strokeWidth=3;" edge="1" parent="1" source="103" target="101">
          <mxGeometry relative="1" as="geometry" />
        </mxCell>
        <mxCell id="103" value="&lt;font color=&quot;#ffffff&quot;&gt;Formalise square&amp;nbsp;&lt;br&gt;abstract class&lt;/font&gt;" style="rounded=1;fillColor=#23445D;strokeColor=none;strokeWidth=2;fontFamily=Helvetica;html=1;gradientColor=none;" parent="1" vertex="1">
          <mxGeometry x="940.2549659863945" y="1455.5" width="127" height="50" as="geometry" />
        </mxCell>
        <mxCell id="111" value="Formalise square&lt;br&gt;chaining workflow" style="rounded=1;fillColor=#23445D;strokeColor=none;strokeWidth=2;gradientColor=none;fontFamily=Helvetica;html=1;fontColor=#FFFFFF;" parent="1" vertex="1">
          <mxGeometry x="1372.5716326530612" y="1550" width="127" height="50" as="geometry" />
        </mxCell>
        <mxCell id="114" value="" style="edgeStyle=elbowEdgeStyle;elbow=horizontal;strokeWidth=3;strokeColor=#0C343D;fontFamily=Helvetica;html=1;" parent="1" source="92" target="91" edge="1">
          <mxGeometry x="6.448979591836746" y="830.5" width="131.97278911564624" height="100" as="geometry">
            <mxPoint x="6.448979591836746" y="930.5" as="sourcePoint" />
            <mxPoint x="138.421768707483" y="830.5" as="targetPoint" />
            <Array as="points">
              <mxPoint x="650" y="1130" />
            </Array>
          </mxGeometry>
        </mxCell>
        <mxCell id="119" value="" style="edgeStyle=elbowEdgeStyle;elbow=horizontal;strokeWidth=3;strokeColor=#0C343D;fontFamily=Helvetica;html=1;" parent="1" source="91" target="97" edge="1">
          <mxGeometry x="6.448979591836746" y="830.5" width="131.97278911564624" height="100" as="geometry">
            <mxPoint x="6.448979591836746" y="930.5" as="sourcePoint" />
            <mxPoint x="138.421768707483" y="830.5" as="targetPoint" />
          </mxGeometry>
        </mxCell>
        <mxCell id="122" value="" style="edgeStyle=elbowEdgeStyle;elbow=horizontal;strokeWidth=3;strokeColor=#0C343D;fontFamily=Helvetica;html=1;" parent="1" source="97" target="98" edge="1">
          <mxGeometry x="6.448979591836746" y="830.5" width="131.97278911564624" height="100" as="geometry">
            <mxPoint x="6.448979591836746" y="930.5" as="sourcePoint" />
            <mxPoint x="138.421768707483" y="830.5" as="targetPoint" />
          </mxGeometry>
        </mxCell>
        <mxCell id="124" value="" style="edgeStyle=elbowEdgeStyle;elbow=horizontal;strokeWidth=3;strokeColor=#0C343D;fontFamily=Helvetica;html=1;" parent="1" source="102" target="103" edge="1">
          <mxGeometry x="6.448979591836746" y="830.5" width="131.97278911564624" height="100" as="geometry">
            <mxPoint x="6.448979591836746" y="930.5" as="sourcePoint" />
            <mxPoint x="138.421768707483" y="830.5" as="targetPoint" />
          </mxGeometry>
        </mxCell>
        <mxCell id="135" value="" style="edgeStyle=elbowEdgeStyle;elbow=horizontal;strokeWidth=3;strokeColor=#0C343D;fontFamily=Helvetica;html=1;" parent="1" source="98" target="111" edge="1">
          <mxGeometry x="6.448979591836746" y="830.5" width="131.97278911564624" height="100" as="geometry">
            <mxPoint x="6.448979591836746" y="930.5" as="sourcePoint" />
            <mxPoint x="138.421768707483" y="830.5" as="targetPoint" />
          </mxGeometry>
        </mxCell>
        <mxCell id="140" value="" style="group" parent="1" vertex="1" connectable="0">
          <mxGeometry x="244" y="890.5" width="1296" height="40" as="geometry" />
        </mxCell>
        <mxCell id="141" value="Foreseeable" style="strokeColor=#BAC8D3;fillColor=#5d7f99;fontSize=19;strokeWidth=2;fontFamily=Helvetica;html=1;labelBackgroundColor=none;fontColor=#FFFFFF;" parent="140" vertex="1">
          <mxGeometry width="1295.9979349575365" height="40" as="geometry" />
        </mxCell>
        <mxCell id="KreT_QJVxRflNTfqCWUp-149" value="" style="edgeStyle=elbowEdgeStyle;rounded=1;orthogonalLoop=1;jettySize=auto;html=1;strokeWidth=3;exitX=1;exitY=0.5;exitDx=0;exitDy=0;curved=0;" edge="1" parent="1" source="KreT_QJVxRflNTfqCWUp-143" target="91">
          <mxGeometry relative="1" as="geometry">
            <Array as="points">
              <mxPoint x="650" y="1020" />
            </Array>
          </mxGeometry>
        </mxCell>
        <mxCell id="KreT_QJVxRflNTfqCWUp-174" value="" style="edgeStyle=orthogonalEdgeStyle;rounded=0;orthogonalLoop=1;jettySize=auto;html=1;strokeWidth=3;" edge="1" parent="1" source="KreT_QJVxRflNTfqCWUp-143" target="KreT_QJVxRflNTfqCWUp-173">
          <mxGeometry relative="1" as="geometry" />
        </mxCell>
        <mxCell id="KreT_QJVxRflNTfqCWUp-143" value="Configure and test tap gesture" style="whiteSpace=wrap;html=1;fillColor=#23445D;strokeColor=none;fontColor=#FFFFFF;rounded=1;strokeWidth=2;gradientColor=none;" vertex="1" parent="1">
          <mxGeometry x="480.8945578231293" y="950.5" width="120" height="60" as="geometry" />
        </mxCell>
        <mxCell id="KreT_QJVxRflNTfqCWUp-147" value="" style="edgeStyle=orthogonalEdgeStyle;rounded=0;orthogonalLoop=1;jettySize=auto;html=1;strokeWidth=3;" edge="1" parent="1" source="KreT_QJVxRflNTfqCWUp-145" target="KreT_QJVxRflNTfqCWUp-146">
          <mxGeometry relative="1" as="geometry" />
        </mxCell>
        <mxCell id="KreT_QJVxRflNTfqCWUp-145" value="&lt;font color=&quot;#ffffff&quot;&gt;Card Abstract Class&lt;/font&gt;" style="rounded=1;fillColor=#23445D;strokeColor=none;strokeWidth=2;fontFamily=Helvetica;html=1;gradientColor=none;" vertex="1" parent="1">
          <mxGeometry x="270.39374149659864" y="1255.5" width="127" height="50" as="geometry" />
        </mxCell>
        <mxCell id="KreT_QJVxRflNTfqCWUp-148" value="" style="edgeStyle=orthogonalEdgeStyle;rounded=0;orthogonalLoop=1;jettySize=auto;html=1;strokeWidth=3;" edge="1" parent="1" source="KreT_QJVxRflNTfqCWUp-146" target="92">
          <mxGeometry relative="1" as="geometry" />
        </mxCell>
        <mxCell id="KreT_QJVxRflNTfqCWUp-162" value="" style="edgeStyle=elbowEdgeStyle;rounded=1;orthogonalLoop=1;jettySize=auto;html=1;strokeWidth=3;" edge="1" parent="1" source="KreT_QJVxRflNTfqCWUp-146" target="102">
          <mxGeometry relative="1" as="geometry" />
        </mxCell>
        <mxCell id="KreT_QJVxRflNTfqCWUp-163" value="" style="edgeStyle=orthogonalEdgeStyle;rounded=1;orthogonalLoop=1;jettySize=auto;html=1;curved=0;strokeWidth=3;" edge="1" parent="1" source="KreT_QJVxRflNTfqCWUp-146" target="93">
          <mxGeometry relative="1" as="geometry" />
        </mxCell>
        <mxCell id="KreT_QJVxRflNTfqCWUp-146" value="&lt;font color=&quot;#ffffff&quot;&gt;Create card ids&lt;/font&gt;" style="rounded=1;fillColor=#23445D;strokeColor=none;strokeWidth=2;fontFamily=Helvetica;html=1;gradientColor=none;" vertex="1" parent="1">
          <mxGeometry x="477.39374149659864" y="1255.5" width="127" height="50" as="geometry" />
        </mxCell>
        <mxCell id="KreT_QJVxRflNTfqCWUp-157" value="&lt;font color=&quot;#ffffff&quot;&gt;Create card descriptor&lt;/font&gt;" style="rounded=1;fillColor=#23445D;strokeColor=none;strokeWidth=2;fontFamily=Helvetica;html=1;gradientColor=none;" vertex="1" parent="1">
          <mxGeometry x="700.0037414965985" y="1155.5" width="127" height="50" as="geometry" />
        </mxCell>
        <mxCell id="KreT_QJVxRflNTfqCWUp-177" value="" style="edgeStyle=orthogonalEdgeStyle;rounded=1;orthogonalLoop=1;jettySize=auto;html=1;curved=0;strokeWidth=3;" edge="1" parent="1" source="KreT_QJVxRflNTfqCWUp-167" target="KreT_QJVxRflNTfqCWUp-176">
          <mxGeometry relative="1" as="geometry" />
        </mxCell>
        <mxCell id="KreT_QJVxRflNTfqCWUp-167" value="Create and test&lt;br&gt;interrupts" style="rounded=1;fillColor=#23445D;strokeColor=none;strokeWidth=2;fontFamily=Helvetica;html=1;gradientColor=none;fontColor=#FFFFFF;" vertex="1" parent="1">
          <mxGeometry x="477.3945578231293" y="1355.5" width="127" height="50" as="geometry" />
        </mxCell>
        <mxCell id="KreT_QJVxRflNTfqCWUp-183" value="" style="edgeStyle=orthogonalEdgeStyle;rounded=1;orthogonalLoop=1;jettySize=auto;html=1;strokeWidth=3;curved=0;" edge="1" parent="1" source="KreT_QJVxRflNTfqCWUp-170" target="KreT_QJVxRflNTfqCWUp-182">
          <mxGeometry relative="1" as="geometry" />
        </mxCell>
        <mxCell id="KreT_QJVxRflNTfqCWUp-170" value="Formalise quest&lt;br&gt;abstract class" style="rounded=1;fillColor=#23445D;strokeColor=none;strokeWidth=2;fontFamily=Helvetica;html=1;gradientColor=none;fontColor=#FFFFFF;" vertex="1" parent="1">
          <mxGeometry x="940.2545578231293" y="1255.5" width="127" height="50" as="geometry" />
        </mxCell>
        <mxCell id="KreT_QJVxRflNTfqCWUp-179" value="" style="edgeStyle=elbowEdgeStyle;rounded=1;orthogonalLoop=1;jettySize=auto;html=1;curved=0;strokeWidth=3;" edge="1" parent="1" source="KreT_QJVxRflNTfqCWUp-173" target="97">
          <mxGeometry relative="1" as="geometry" />
        </mxCell>
        <mxCell id="KreT_QJVxRflNTfqCWUp-193" value="" style="edgeStyle=orthogonalEdgeStyle;rounded=1;orthogonalLoop=1;jettySize=auto;html=1;curved=0;strokeWidth=3;" edge="1" parent="1" source="KreT_QJVxRflNTfqCWUp-173" target="KreT_QJVxRflNTfqCWUp-192">
          <mxGeometry relative="1" as="geometry" />
        </mxCell>
        <mxCell id="KreT_QJVxRflNTfqCWUp-173" value="Implement player tile" style="whiteSpace=wrap;html=1;fillColor=#23445D;strokeColor=none;fontColor=#FFFFFF;rounded=1;strokeWidth=2;gradientColor=none;" vertex="1" parent="1">
          <mxGeometry x="700.0045578231293" y="950.5" width="120" height="60" as="geometry" />
        </mxCell>
        <mxCell id="KreT_QJVxRflNTfqCWUp-175" value="" style="edgeStyle=elbowEdgeStyle;elbow=horizontal;strokeWidth=3;strokeColor=#0C343D;fontFamily=Helvetica;html=1;" edge="1" parent="1" source="91" target="97">
          <mxGeometry x="6.448979591836746" y="830.5" width="131.97278911564624" height="100" as="geometry">
            <mxPoint x="827" y="1075" as="sourcePoint" />
            <mxPoint x="1373" y="981" as="targetPoint" />
          </mxGeometry>
        </mxCell>
        <mxCell id="97" value="&lt;font color=&quot;#ffffff&quot;&gt;Implement player stats&lt;/font&gt;" style="rounded=1;fillColor=#23445D;strokeColor=none;strokeWidth=2;fontFamily=Helvetica;html=1;gradientColor=none;" parent="1" vertex="1">
          <mxGeometry x="940.2549659863945" y="1050" width="127" height="50" as="geometry" />
        </mxCell>
        <mxCell id="KreT_QJVxRflNTfqCWUp-178" value="" style="edgeStyle=orthogonalEdgeStyle;rounded=1;orthogonalLoop=1;jettySize=auto;html=1;entryX=0;entryY=0.5;entryDx=0;entryDy=0;strokeWidth=3;curved=0;" edge="1" parent="1" source="KreT_QJVxRflNTfqCWUp-176" target="KreT_QJVxRflNTfqCWUp-170">
          <mxGeometry relative="1" as="geometry" />
        </mxCell>
        <mxCell id="KreT_QJVxRflNTfqCWUp-176" value="Create interrupt&lt;br&gt;singleton" style="rounded=1;fillColor=#23445D;strokeColor=none;strokeWidth=2;fontFamily=Helvetica;html=1;gradientColor=none;fontColor=#FFFFFF;" vertex="1" parent="1">
          <mxGeometry x="693.0045578231293" y="1355.5" width="127" height="50" as="geometry" />
        </mxCell>
        <mxCell id="KreT_QJVxRflNTfqCWUp-185" value="" style="edgeStyle=elbowEdgeStyle;rounded=1;orthogonalLoop=1;jettySize=auto;html=1;curved=0;strokeWidth=3;" edge="1" parent="1" source="KreT_QJVxRflNTfqCWUp-182" target="KreT_QJVxRflNTfqCWUp-184">
          <mxGeometry relative="1" as="geometry" />
        </mxCell>
        <mxCell id="KreT_QJVxRflNTfqCWUp-182" value="&lt;font color=&quot;#ffffff&quot;&gt;Formalise quest&lt;br&gt;checking&lt;/font&gt;" style="rounded=1;fillColor=#23445D;strokeColor=none;strokeWidth=2;fontFamily=Helvetica;html=1;gradientColor=none;" vertex="1" parent="1">
          <mxGeometry x="940.2549659863945" y="1355.5" width="127" height="50" as="geometry" />
        </mxCell>
        <mxCell id="KreT_QJVxRflNTfqCWUp-184" value="&lt;font color=&quot;#ffffff&quot;&gt;Formalise wincon&lt;/font&gt;" style="rounded=1;fillColor=#23445D;strokeColor=none;strokeWidth=2;fontFamily=Helvetica;html=1;gradientColor=none;" vertex="1" parent="1">
          <mxGeometry x="1130.0049659863944" y="1355.5" width="127" height="50" as="geometry" />
        </mxCell>
        <mxCell id="KreT_QJVxRflNTfqCWUp-188" value="" style="edgeStyle=elbowEdgeStyle;rounded=1;orthogonalLoop=1;jettySize=auto;html=1;strokeWidth=3;curved=0;" edge="1" parent="1" source="KreT_QJVxRflNTfqCWUp-186" target="KreT_QJVxRflNTfqCWUp-184">
          <mxGeometry relative="1" as="geometry" />
        </mxCell>
        <mxCell id="KreT_QJVxRflNTfqCWUp-186" value="&lt;font color=&quot;#ffffff&quot;&gt;Create win end card&lt;/font&gt;" style="rounded=1;fillColor=#23445D;strokeColor=none;strokeWidth=2;fontFamily=Helvetica;html=1;gradientColor=none;" vertex="1" parent="1">
          <mxGeometry x="940.2549659863944" y="1150" width="127" height="50" as="geometry" />
        </mxCell>
        <mxCell id="KreT_QJVxRflNTfqCWUp-194" value="" style="edgeStyle=orthogonalEdgeStyle;rounded=1;orthogonalLoop=1;jettySize=auto;html=1;entryX=0;entryY=0.5;entryDx=0;entryDy=0;curved=0;strokeWidth=3;" edge="1" parent="1" source="KreT_QJVxRflNTfqCWUp-192" target="98">
          <mxGeometry relative="1" as="geometry" />
        </mxCell>
        <mxCell id="KreT_QJVxRflNTfqCWUp-192" value="Player movement" style="whiteSpace=wrap;html=1;fillColor=#23445D;strokeColor=none;fontColor=#FFFFFF;rounded=1;strokeWidth=2;gradientColor=none;" vertex="1" parent="1">
          <mxGeometry x="947.2545578231293" y="950.5" width="120" height="60" as="geometry" />
        </mxCell>
        <mxCell id="143" value="We get here when we get here" style="strokeColor=#BAC8D3;fillColor=#5d7f99;fontSize=19;strokeWidth=2;fontFamily=Helvetica;html=1;labelBackgroundColor=none;fontColor=#FFFFFF;" parent="1" vertex="1">
          <mxGeometry x="1537" y="890.5" width="653" height="40" as="geometry" />
        </mxCell>
      </root>
    </mxGraphModel>
  </diagram>
</mxfile>
